<?xml version="1.0" standalone="no"?>
<!DOCTYPE svg PUBLIC "-//W3C//DTD SVG 20010904//EN"
 "http://www.w3.org/TR/2001/REC-SVG-20010904/DTD/svg10.dtd">
<svg version="1.0" xmlns="http://www.w3.org/2000/svg"
 width="120.000000pt" height="120.000000pt" viewBox="0 0 120.000000 120.000000"
 preserveAspectRatio="xMidYMid meet">
<metadata>
Created by potrace 1.14, written by Peter Selinger 2001-2017
</metadata>
<g transform="translate(0.000000,120.000000) scale(0.100000,-0.100000)"
fill="#000000" stroke="none">
<path d="M262 1011 c-101 -35 -151 -107 -159 -231 -15 -210 87 -308 311 -298
111 5 173 31 217 91 40 55 52 107 47 207 -5 102 -29 156 -89 199 -71 52 -225
67 -327 32z m267 -53 c68 -36 96 -96 95 -208 -1 -126 -38 -189 -128 -215 -144
-43 -289 8 -325 114 -18 54 -14 179 8 227 22 49 72 90 127 103 62 16 171 5
223 -21z"/>
<path d="M759 938 c0 -2 -2 -52 -4 -113 -3 -129 -17 -219 -50 -331 -32 -113
-39 -124 -78 -124 -18 0 -38 -5 -44 -11 -17 -17 -4 -39 23 -39 30 0 30 -14 -1
-72 -24 -45 -24 -47 -6 -69 25 -32 41 -17 70 66 13 36 28 68 33 71 13 8 155
34 188 34 19 0 30 -9 45 -36 28 -51 70 -84 110 -84 37 0 48 10 39 34 -4 9 -18
16 -35 16 -32 0 -79 52 -79 87 0 11 -6 26 -13 32 -18 15 -33 69 -47 171 -12
84 -33 182 -50 230 -4 14 -11 37 -14 52 -7 32 -53 88 -72 88 -8 0 -14 -1 -15
-2z m74 -233 c13 -50 42 -219 50 -290 2 -18 -7 -21 -71 -29 -40 -5 -75 -7 -77
-4 -3 2 1 27 9 54 26 87 56 252 56 300 0 59 12 48 33 -31z"/>
</g>
</svg>
